<svg xmlns="http://www.w3.org/2000/svg" viewBox="0 0 900 650" role="img" aria-label="Candle Holders">
  <defs>
    <linearGradient id="bg" x1="0" y1="0" x2="1" y2="1">
      <stop offset="0" stop-color="#fff8ef"/>
      <stop offset="1" stop-color="#ead8c4"/>
    </linearGradient>
    <linearGradient id="accent" x1="0" y1="0" x2="1" y2="1">
      <stop offset="0" stop-color="#b96f4d"/>
      <stop offset="1" stop-color="#c99a45"/>
    </linearGradient>
    <filter id="shadow" x="-20%" y="-20%" width="140%" height="140%">
      <feDropShadow dx="0" dy="22" stdDeviation="22" flood-color="#2f261e" flood-opacity=".16"/>
    </filter>
  </defs>
  <rect width="900" height="650" fill="url(#bg)"/>
  <circle cx="760" cy="120" r="130" fill="#6f8f72" opacity=".14"/>
  <circle cx="100" cy="560" r="170" fill="#b96f4d" opacity=".12"/>
  <g filter="url(#shadow)"><ellipse cx="460" cy="515" rx="215" ry="42" fill="#2f261e" opacity=".11"/>
<rect x="340" y="250" width="240" height="250" rx="38" fill="url(#accent)"/>
<rect x="375" y="285" width="170" height="176" rx="28" fill="#fff7ed" opacity=".88"/>
<path d="M455 210 C420 250 430 292 455 305 C485 288 502 250 455 210Z" fill="#c99a45"/>
<path d="M455 248 C444 265 447 283 457 292 C471 278 474 262 455 248Z" fill="#fff6e0"/>
<path d="M385 365 H535" stroke="#8f5137" stroke-width="14" stroke-linecap="round" opacity=".45"/></g>
  <rect x="58" y="50" width="242" height="42" rx="21" fill="#ffffff" opacity=".8"/>
  <text x="82" y="78" font-family="Arial, sans-serif" font-size="17" font-weight="700" fill="#8f5137">ARTISAN COLLECTION</text>
  <text x="58" y="560" font-family="Arial, sans-serif" font-size="42" font-weight="800" fill="#2f261e">Candle Holders</text>
  <text x="58" y="602" font-family="Arial, sans-serif" font-size="22" fill="#65758b">Seasonal home fragrance display</text>
</svg>