<svg xmlns="http://www.w3.org/2000/svg" viewBox="0 0 900 650" role="img" aria-label="Gift Packaging">
  <defs>
    <linearGradient id="bg" x1="0" y1="0" x2="1" y2="1">
      <stop offset="0" stop-color="#fff8ef"/>
      <stop offset="1" stop-color="#ead8c4"/>
    </linearGradient>
    <linearGradient id="accent" x1="0" y1="0" x2="1" y2="1">
      <stop offset="0" stop-color="#b96f4d"/>
      <stop offset="1" stop-color="#c99a45"/>
    </linearGradient>
    <filter id="shadow" x="-20%" y="-20%" width="140%" height="140%">
      <feDropShadow dx="0" dy="22" stdDeviation="22" flood-color="#2f261e" flood-opacity=".16"/>
    </filter>
  </defs>
  <rect width="900" height="650" fill="url(#bg)"/>
  <circle cx="760" cy="120" r="130" fill="#6f8f72" opacity=".14"/>
  <circle cx="100" cy="560" r="170" fill="#b96f4d" opacity=".12"/>
  <g filter="url(#shadow)"><ellipse cx="455" cy="520" rx="230" ry="42" fill="#2f261e" opacity=".11"/>
<rect x="285" y="290" width="340" height="210" rx="32" fill="url(#accent)"/>
<rect x="425" y="290" width="60" height="210" fill="#fff7ed" opacity=".9"/>
<rect x="260" y="240" width="390" height="76" rx="26" fill="#8f5137"/>
<rect x="427" y="240" width="58" height="76" fill="#fff7ed" opacity=".9"/>
<path d="M430 240 C360 195 358 140 415 145 C465 150 455 215 455 240" fill="none" stroke="#8f5137" stroke-width="28" stroke-linecap="round"/>
<path d="M480 240 C550 195 552 140 495 145 C445 150 455 215 455 240" fill="none" stroke="#8f5137" stroke-width="28" stroke-linecap="round"/></g>
  <rect x="58" y="50" width="242" height="42" rx="21" fill="#ffffff" opacity=".8"/>
  <text x="82" y="78" font-family="Arial, sans-serif" font-size="17" font-weight="700" fill="#8f5137">ARTISAN COLLECTION</text>
  <text x="58" y="560" font-family="Arial, sans-serif" font-size="42" font-weight="800" fill="#2f261e">Gift Packaging</text>
  <text x="58" y="602" font-family="Arial, sans-serif" font-size="22" fill="#65758b">Retail-ready box, logo and insert card</text>
</svg>