<svg xmlns="http://www.w3.org/2000/svg" viewBox="0 0 900 650" role="img" aria-label="Resin Figurines">
  <defs>
    <linearGradient id="bg" x1="0" y1="0" x2="1" y2="1">
      <stop offset="0" stop-color="#fff8ef"/>
      <stop offset="1" stop-color="#ead8c4"/>
    </linearGradient>
    <linearGradient id="accent" x1="0" y1="0" x2="1" y2="1">
      <stop offset="0" stop-color="#6f8f72"/>
      <stop offset="1" stop-color="#c99a45"/>
    </linearGradient>
    <filter id="shadow" x="-20%" y="-20%" width="140%" height="140%">
      <feDropShadow dx="0" dy="22" stdDeviation="22" flood-color="#2f261e" flood-opacity=".16"/>
    </filter>
  </defs>
  <rect width="900" height="650" fill="url(#bg)"/>
  <circle cx="760" cy="120" r="130" fill="#6f8f72" opacity=".14"/>
  <circle cx="100" cy="560" r="170" fill="#6f8f72" opacity=".12"/>
  <g filter="url(#shadow)"><ellipse cx="455" cy="515" rx="205" ry="40" fill="#2f261e" opacity=".11"/>
<path d="M330 370 C315 255 385 180 455 180 C525 180 595 255 580 370 C572 450 518 492 455 492 C392 492 338 450 330 370Z" fill="url(#accent)"/>
<circle cx="410" cy="330" r="24" fill="#fffaf3"/><circle cx="500" cy="330" r="24" fill="#fffaf3"/>
<path d="M400 405 Q455 445 510 405" stroke="#fffaf3" stroke-width="16" stroke-linecap="round" fill="none"/>
<path d="M345 225 L300 160" stroke="#6f8f72" stroke-width="28" stroke-linecap="round"/><path d="M565 225 L610 160" stroke="#6f8f72" stroke-width="28" stroke-linecap="round"/>
<circle cx="455" cy="235" r="44" fill="#fff7ed" opacity=".25"/></g>
  <rect x="58" y="50" width="242" height="42" rx="21" fill="#ffffff" opacity=".8"/>
  <text x="82" y="78" font-family="Arial, sans-serif" font-size="17" font-weight="700" fill="#8f5137">ARTISAN COLLECTION</text>
  <text x="58" y="560" font-family="Arial, sans-serif" font-size="42" font-weight="800" fill="#2f261e">Resin Figurines</text>
  <text x="58" y="602" font-family="Arial, sans-serif" font-size="22" fill="#65758b">Custom color and packaging supported</text>
</svg>