<svg xmlns="http://www.w3.org/2000/svg" viewBox="0 0 900 650" role="img" aria-label="Wooden Home Decor">
  <defs>
    <linearGradient id="bg" x1="0" y1="0" x2="1" y2="1">
      <stop offset="0" stop-color="#fff8ef"/>
      <stop offset="1" stop-color="#ead8c4"/>
    </linearGradient>
    <linearGradient id="accent" x1="0" y1="0" x2="1" y2="1">
      <stop offset="0" stop-color="#9b6b43"/>
      <stop offset="1" stop-color="#c99a45"/>
    </linearGradient>
    <filter id="shadow" x="-20%" y="-20%" width="140%" height="140%">
      <feDropShadow dx="0" dy="22" stdDeviation="22" flood-color="#2f261e" flood-opacity=".16"/>
    </filter>
  </defs>
  <rect width="900" height="650" fill="url(#bg)"/>
  <circle cx="760" cy="120" r="130" fill="#6f8f72" opacity=".14"/>
  <circle cx="100" cy="560" r="170" fill="#9b6b43" opacity=".12"/>
  <g filter="url(#shadow)"><ellipse cx="460" cy="520" rx="210" ry="38" fill="#2f261e" opacity=".11"/>
<rect x="300" y="220" width="320" height="240" rx="48" fill="url(#accent)"/>
<circle cx="390" cy="330" r="58" fill="#fff6e9" opacity=".85"/>
<circle cx="520" cy="330" r="58" fill="#fff6e9" opacity=".85"/>
<rect x="365" y="400" width="190" height="28" rx="14" fill="#fff6e9" opacity=".82"/>
<path d="M325 258 C420 305 505 205 600 265" stroke="#8f5137" stroke-width="12" fill="none" opacity=".38"/>
<path d="M320 345 C420 400 525 300 610 360" stroke="#8f5137" stroke-width="10" fill="none" opacity=".3"/></g>
  <rect x="58" y="50" width="242" height="42" rx="21" fill="#ffffff" opacity=".8"/>
  <text x="82" y="78" font-family="Arial, sans-serif" font-size="17" font-weight="700" fill="#8f5137">ARTISAN COLLECTION</text>
  <text x="58" y="560" font-family="Arial, sans-serif" font-size="42" font-weight="800" fill="#2f261e">Wooden Home Decor</text>
  <text x="58" y="602" font-family="Arial, sans-serif" font-size="22" fill="#65758b">Natural texture, gift-shop favorite</text>
</svg>